#!OML:ASF \\Waltz\H\Terrain\Patient Classification 1\Animal2\Wednesday\Animal2.ASF
:FULLY-SPECIFIED
:DEGREES
1242
root 15.6127 17.6323 -8.85883 -539.883 42.352 -180.665
lowerback 2.91816 -1.1165 4.77263
upperback -4.97996 -0.952215 1.47561
thorax -6.90368 -0.610042 -1.0516
lowerneck 10.9912 8.06135 14.8867
upperneck -13.3298 11.4804 -16.7354
head -3.81996 6.24406 -8.29907
rclavicle 1.75924e-014 7.95139e-016
rhumerus 36.7406 37.2162 -32.7602
rradius 59.145
rwrist -28.5099
rhand -13.6223 18.2343
rfingers 7.12502
rthumb 12.4933 -11.3722
lclavicle 1.75924e-014 7.95139e-016
lhumerus 11.0235 20.1547 6.17408
lradius 57.105
lwrist 13.6877
lhand -50.5812 13.0896
lfingers 7.12502
lthumb -23.1468 41.719
rfemur -27.624 12.3068 11.9431
rtibia 28.2954
rfoot -11.3998 9.62407
rtoes 23.5901
lfemur 1.81338 -7.04275 -23.6616
ltibia 19.8319
lfoot -22.0363 -4.68386
ltoes -18.8371
1243
root 15.6726 17.6288 -8.91664 -539.726 41.2623 -180.664
lowerback 2.62973 -1.17875 4.67323
upperback -5.06608 -1.05081 1.44407
thorax -6.83198 -0.651218 -1.0245
lowerneck 11.0299 8.05471 14.9899
upperneck -13.4374 11.4905 -16.7151
head -3.85205 6.24394 -8.31749
rclavicle 7.65321e-015 4.69132e-014
rhumerus 36.8513 37.3077 -32.7069
rradius 59.0653
rwrist -28.1484
rhand -13.5605 18.1281
rfingers 7.12502
rthumb 12.5529 -11.4748
lclavicle 7.65321e-015 4.69132e-014
lhumerus 10.8966 20.1999 6.18366
lradius 57.0433
lwrist 13.7457
lhand -50.2005 13.0135
lfingers 7.12502
lthumb -22.7815 41.6883
rfemur -27.8472 12.387 12.1005
rtibia 28.2801
rfoot -11.482 10.6937
rtoes 23.3548
lfemur 2.02359 -7.58933 -23.582
ltibia 19.494
lfoot -21.883 -5.76264
ltoes -15.564
1244
root 15.738 17.6242 -8.97679 -539.645 40.2447 -180.559
lowerback 2.4896 -1.25378 4.5964
upperback -5.14253 -1.15161 1.48037
thorax -6.83518 -0.693597 -0.936675
lowerneck 11.0088 8.12849 14.9494
upperneck -13.3848 11.599 -16.5722
head -3.82806 6.2877 -8.25956
rclavicle -8.44835e-015 -3.81667e-014
rhumerus 36.8871 37.4482 -32.7135
rradius 59.01
rwrist -27.6302
rhand -13.4185 18.085
rfingers 7.12502
rthumb 12.6898 -11.5094
lclavicle -8.44835e-015 -3.81667e-014
lhumerus 10.7081 20.192 6.13325
lradius 56.9861
lwrist 13.848
lhand -50.8481 12.6315
lfingers 7.12502
lthumb -23.4029 41.2285
rfemur -27.8383 12.5058 12.4163
rtibia 28.2608
rfoot -11.6679 11.7089
rtoes 21.8065
lfemur 2.38512 -8.11612 -23.4392
ltibia 19.2649
lfoot -21.7866 -6.82788
ltoes -11.734
1245
root 15.8036 17.6218 -9.03829 -539.794 39.2286 -180.642
lowerback 2.5169 -1.32538 4.33809
upperback -5.23293 -1.25025 1.51425
thorax -6.94389 -0.727982 -0.746674
lowerneck 10.9717 8.17482 14.9081
upperneck -13.2554 11.6654 -16.5145
head -3.77941 6.31756 -8.22397
rclavicle -1.07443e-013 7.95139e-016
rhumerus 36.9544 37.701 -32.5788
rradius 59.0603
rwrist -27.4939
rhand -13.3683 17.9212
rfingers 7.12502
rthumb 12.7382 -11.6702
lclavicle -1.07443e-013 7.95139e-016
lhumerus 10.5506 20.1109 6.14055
lradius 56.8208
lwrist 13.9339
lhand -51.284 12.932
lfingers 7.12502
lthumb -23.821 41.4752
rfemur -27.7234 12.6787 12.5767
rtibia 28.2426
rfoot -11.8978 12.5008
rtoes 20.3393
lfemur 2.78107 -8.71936 -23.486
ltibia 19.2207
lfoot -21.7911 -7.46028
ltoes -9.55871
1246
root 15.8654 17.6173 -9.09912 -539.546 38.1674 -180.363
lowerback 2.38999 -1.37473 4.47738
upperback -5.36101 -1.29654 1.5379
thorax -7.01444 -0.754774 -0.796313
lowerneck 10.9991 8.09122 15.0057
upperneck -13.2368 11.5735 -16.4892
head -3.78965 6.26619 -8.2329
rclavicle -6.4605e-014 3.26007e-014
rhumerus 37.113 38.0107 -32.2475
rradius 59.2459
rwrist -27.8309
rhand -13.6936 17.6207
rfingers 7.12502
rthumb 12.4245 -11.99
lclavicle -6.4605e-014 3.26007e-014
lhumerus 10.5034 20.1183 6.16503
lradius 56.5659
lwrist 13.6325
lhand -50.1565 13.048
lfingers 7.12502
lthumb -22.7393 41.728
rfemur -27.8054 12.7837 12.9947
rtibia 28.2806
rfoot -12.0555 13.1767
rtoes 18.7778
lfemur 2.95291 -9.25117 -23.1644
ltibia 19.1992
lfoot -22.0202 -7.56678
ltoes -11.4107
1247
root 15.9308 17.6028 -9.15428 -539.318 37.0887 -180.127
lowerback 2.20068 -1.43729 4.58916
upperback -5.42681 -1.37567 1.51595
thorax -6.98397 -0.797361 -0.87809
lowerneck 11.0358 8.07466 15.0368
upperneck -13.3965 11.5624 -16.4
head -3.84991 6.25338 -8.22099
rclavicle -4.17448e-014 -2.54444e-014
rhumerus 37.3081 38.2103 -31.9234
rradius 59.5793
rwrist -28.2021
rhand -13.9668 17.4559
rfingers 7.12502
rthumb 12.1611 -12.1706
lclavicle -4.17448e-014 -2.54444e-014
lhumerus 10.4589 20.2939 6.14154
lradius 56.3483
lwrist 13.1918
lhand -49.1626 12.2002
lfingers 7.12502
lthumb -21.7851 40.9942
rfemur -27.852 12.8547 13.3642
rtibia 28.4353
rfoot -12.0366 13.868
rtoes 16.0651
lfemur 3.09878 -9.73828 -22.8328
ltibia 19.1456
lfoot -22.225 -7.70873
ltoes -13.4285
1248
root 16.001 17.597 -9.2091 -539.424 35.9989 -180.281
lowerback 2.1155 -1.54114 4.27986
upperback -5.4873 -1.53702 1.45007
thorax -6.99774 -0.86223 -0.761946
lowerneck 11.0354 8.14137 15.2261
upperneck -13.3663 11.6796 -16.4731
head -3.80446 6.30827 -8.27083
rclavicle 4.67144e-015 1.51076e-014
rhumerus 37.5325 38.4178 -31.7607
rradius 59.7304
rwrist -28.2671
rhand -13.9943 17.4237
rfingers 7.12502
rthumb 12.1346 -12.2044
lclavicle 4.67144e-015 1.51076e-014
lhumerus 10.2533 20.2829 5.95438
lradius 56.3049
lwrist 13.3179
lhand -49.1931 12.0466
lfingers 7.12502
lthumb -21.8145 40.8371
rfemur -27.7974 13.0641 13.3263
rtibia 28.7274
rfoot -11.6285 14.517
rtoes 15.9219
lfemur 3.28513 -10.1778 -22.8421
ltibia 19.2184
lfoot -22.3636 -8.34305
ltoes -12.7286
1249
root 16.0733 17.6012 -9.26212 -539.428 34.8671 -180.289
lowerback 2.12232 -1.63212 3.99326
upperback -5.57377 -1.66526 1.46431
thorax -7.08882 -0.908979 -0.574698
lowerneck 10.6774 8.1813 15.6309
upperneck -12.8583 11.7519 -16.7739
head -3.53374 6.34079 -8.37596
rclavicle 1.25234e-014 5.56597e-014
rhumerus 37.6624 38.5863 -31.5568
rradius 59.816
rwrist -28.0501
rhand -13.8813 17.1795
rfingers 7.12502
rthumb 12.2435 -12.4422
lclavicle 1.25234e-014 5.56597e-014
lhumerus 10.0694 20.1122 5.77275
lradius 56.2262
lwrist 13.6808
lhand -49.5188 12.5975
lfingers 7.12502
lthumb -22.1272 41.3513
rfemur -27.8051 13.7132 13.2282
rtibia 29.1488
rfoot -10.7446 14.9887
rtoes 18.868
lfemur 3.36008 -10.5412 -22.6762
ltibia 19.4635
lfoot -22.5362 -9.11269
ltoes -11.5918
1250
root 16.1465 17.5895 -9.31254 -539.396 33.7436 -180.12
lowerback 2.1581 -1.63261 3.9371
upperback -5.5886 -1.66502 1.45354
thorax -7.12365 -0.90563 -0.553481
lowerneck 10.4979 8.16912 15.7049
upperneck -12.7747 11.7299 -16.7883
head -3.47687 6.32426 -8.37582
rclavicle -5.56597e-015 4.45278e-014
rhumerus 37.4483 38.4905 -31.5714
rradius 59.9231
rwrist -27.5606
rhand -13.6715 16.9738
rfingers 7.12502
rthumb 12.4459 -12.6356
lclavicle -5.56597e-015 4.45278e-014
lhumerus 10.1351 20.0116 5.78739
lradius 56.0216
lwrist 13.8559
lhand -49.8996 12.5815
lfingers 7.12502
lthumb -22.4927 41.2916
rfemur -27.6373 14.4485 13.1956
rtibia 29.7124
rfoot -9.64433 15.271
rtoes 21.8684
lfemur 3.41561 -10.9907 -22.3708
ltibia 19.8798
lfoot -22.7672 -9.64547
ltoes -10.9801
1251
root 16.2161 17.5651 -9.36759 -539.345 32.7179 -179.781
lowerback 2.16657 -1.62267 4.14653
upperback -5.54844 -1.64261 1.41646
thorax -7.09405 -0.90646 -0.711427
lowerneck 10.9103 8.1512 15.2504
upperneck -13.4799 11.7102 -16.1644
head -3.83406 6.29622 -8.17375
rclavicle 7.74266e-014 -1.19271e-014
rhumerus 37.404 38.3726 -31.7442
rradius 59.8053
rwrist -27.1578
rhand -13.5933 17.2134
rfingers 7.12502
rthumb 12.5212 -12.3915
lclavicle 7.74266e-014 -1.19271e-014
lhumerus 10.02 19.8335 5.56911
lradius 55.8577
lwrist 14.1738
lhand -50.1599 12.3474
lfingers 7.12502
lthumb -22.7426 41.027
rfemur -27.2031 14.7966 13.4626
rtibia 30.3694
rfoot -9.5754 14.9856
rtoes 22.8086
lfemur 3.3745 -11.5505 -21.9701
ltibia 20.6013
lfoot -22.5423 -11.1521
ltoes -4.57335
1252
root 16.2819 17.5368 -9.41952 -539.257 31.7174 -179.548
lowerback 2.17035 -1.65252 4.17657
upperback -5.53436 -1.67634 1.45444
thorax -7.08285 -0.922121 -0.685857
lowerneck 11.0448 8.16206 14.79
upperneck -13.8631 11.7078 -15.6184
head -4.0412 6.27651 -7.95978
rclavicle -1.05654e-013 -1.35174e-014
rhumerus 37.6956 38.3441 -31.5877
rradius 59.7523
rwrist -27.1336
rhand -13.5228 17.433
rfingers 7.12502
rthumb 12.5892 -12.1677
lclavicle -1.05654e-013 -1.35174e-014
lhumerus 9.60853 19.7144 5.25503
lradius 55.7244
lwrist 14.3872
lhand -50.4049 12.3716
lfingers 7.12502
lthumb -22.9777 41.0222
rfemur -26.8405 14.8412 13.7439
rtibia 31.052
rfoot -10.5649 14.1322
rtoes 21.2345
lfemur 3.02507 -12.1676 -21.6469
ltibia 21.5997
lfoot -22.8442 -11.2478
ltoes -4.45793
1253
root 16.3492 17.4969 -9.47101 -539.289 30.678 -179.559
lowerback 2.19969 -1.65557 4.03873
upperback -5.54218 -1.68736 1.42995
thorax -7.1039 -0.920785 -0.63283
lowerneck 10.7955 8.11994 14.6653
upperneck -13.7057 11.6218 -15.4959
head -3.98246 6.22669 -7.87648
rclavicle 3.33958e-014 4.77083e-015
rhumerus 37.8495 38.3483 -31.3828
rradius 59.8105
rwrist -27.1948
rhand -13.4594 17.3734
rfingers 7.12502
rthumb 12.6503 -12.2235
lclavicle 3.33958e-014 4.77083e-015
lhumerus 9.25546 19.5573 5.00409
lradius 55.6872
lwrist 14.594
lhand -50.6459 12.7236
lfingers 7.12502
lthumb -23.2089 41.3452
rfemur -26.4878 14.6522 13.8223
rtibia 31.7347
rfoot -11.5661 13.0827
rtoes 18.4613
lfemur 2.67634 -12.8037 -21.5783
ltibia 22.6764
lfoot -23.1868 -11.5033
ltoes -4.209
1254
root 16.4172 17.4601 -9.53176 -539.299 29.6851 -179.264
lowerback 2.25389 -1.64642 4.32506
upperback -5.50748 -1.65836 1.39427
thorax -7.10967 -0.922881 -0.831267
lowerneck 10.7836 8.07142 14.6631
upperneck -13.7376 11.5565 -15.4896
head -4.00099 6.19487 -7.87576
rclavicle -3.67752e-015 -1.03368e-014
rhumerus 38.0132 38.3997 -31.2902
rradius 59.7438
rwrist -27.0502
rhand -13.2368 17.461
rfingers 7.12502
rthumb 12.8649 -12.1225
lclavicle -3.67752e-015 -1.03368e-014
lhumerus 9.01684 19.3667 4.71289
lradius 55.6694
lwrist 14.813
lhand -50.6723 13.2483
lfingers 7.12502
lthumb -23.2342 41.8667
rfemur -26.0399 14.3178 14.2487
rtibia 32.4149
rfoot -12.5106 11.4452
rtoes 14.4404
lfemur 2.55595 -13.2757 -21.2633
ltibia 23.7483
lfoot -23.78 -11.8171
ltoes -4.61601
